Coordinates
version=1
nRows=14
nColumns=24
inDegrees=yes

Units are S.I. units (second, meters, Newtons, ...)
Angles are in degrees.

endheader
time	pelvis_tilt	pelvis_list	pelvis_rotation	pelvis_tx	pelvis_ty	pelvis_tz	hip_flexion_r	hip_adduction_r	hip_rotation_r	knee_angle_r	ankle_angle_r	subtalar_angle_r	mtp_angle_r	hip_flexion_l	hip_adduction_l	hip_rotation_l	knee_angle_l	ankle_angle_l	subtalar_angle_l	mtp_angle_l	lumbar_extension	lumbar_bending	lumbar_rotation
      4.01000000	    -10.21178909	      1.63776419	     -2.15770674	     -1.89442289	     -0.01203463	      0.39430797	     34.48227751	     -2.17938210	     -5.55928910	    -44.20219986	    -13.63388508	    -16.85620099	      8.08256885	      6.31525757	      5.34562163	     11.13225655	    -10.47095233	      3.52253117	      0.63425972	      6.07187102	      7.37227221	     -0.28885858	     -6.35261664
      4.01500000	    -10.25523543	      1.52629196	     -1.73718953	     -1.88880215	     -0.01235831	      0.39432000	     34.65127378	     -2.25961812	     -5.98503331	    -42.45337088	    -13.13368157	    -16.10589098	      8.26481576	      5.84286376	      5.22696454	     11.38933445	    -10.23033565	      3.73878065	      0.87528918	      6.11711030	      7.33268035	     -0.30813996	     -6.72032088
      4.02000000	    -10.36777120	      1.39327551	     -1.40193330	     -1.88314215	     -0.01277395	      0.39449844	     34.85097048	     -2.23915589	     -6.27283722	    -40.61281552	    -12.72676776	    -15.36582992	      8.44825852	      5.45013768	      5.06534676	     11.56283642	    -10.00363473	      3.93621384	      1.06077731	      6.16593290	      7.37085712	     -0.29444505	     -7.00480789
      4.02500000	    -10.31851618	      1.33142814	     -0.89741088	     -1.87755279	     -0.01306733	      0.39448377	     34.84226896	     -2.42746780	     -6.75264601	    -38.75937982	    -12.12691599	    -14.38271665	      8.73672875	      4.90823687	      4.99795516	     11.82126908	     -9.80353284	      4.17119621	      1.40310421	      6.23499839	      7.22205048	     -0.39128677	     -7.44824318
      4.03000000	    -10.37309112	      1.23447433	     -0.50412397	     -1.87185546	     -0.01348674	      0.39463535	     34.90466187	     -2.50071211	     -7.13398810	    -36.82886446	    -11.64948116	    -13.41883636	      8.99799362	      4.46573790	      4.86906690	     12.00313947	     -9.59379808	      4.38323007	      1.68055665	      6.31414487	      7.20050765	     -0.43051189	     -7.70135871
      4.03500000	    -10.38417788	      1.16251808	     -0.08614505	     -1.86619247	     -0.01387951	      0.39479636	     34.87519986	     -2.59607402	     -7.44029770	    -34.84824377	    -11.14325713	    -12.36412329	      9.26114658	      4.00466799	      4.76813272	     12.16185118	     -9.43017696	      4.58928415	      1.97479957	      6.40592360	      7.12555076	     -0.50163135	     -8.04744943
      4.04000000	    -10.42896552	      1.09071514	      0.29768631	     -1.86043315	     -0.01432640	      0.39501846	     34.84825662	     -2.68085182	     -7.76690237	    -32.83334633	    -10.69049551	    -11.27517733	      9.52429640	      3.56696650	      4.65531979	     12.29481047	     -9.24958303	      4.77322178	      2.26286296	      6.51400895	      7.10218405	     -0.56757740	     -8.28296870
      4.04500000	    -10.42324016	      1.04182255	      0.71467997	     -1.85471196	     -0.01472957	      0.39526043	     34.72416555	     -2.79403849	     -8.04099732	    -30.79017176	    -10.22276103	    -10.11399145	      9.75007166	      3.10356264	      4.56597400	     12.42244130	     -9.11628816	      4.94450284	      2.56137702	      6.63546135	      7.01666786	     -0.67119403	     -8.59026864
      4.05000000	    -10.44014176	      0.99555139	      1.10674712	     -1.84888505	     -0.01517502	      0.39552849	     34.58841944	     -2.90194741	     -8.32572196	    -28.72816518	     -9.79000602	     -8.93835898	      9.96348167	      2.65979892	      4.47433601	     12.51910059	     -8.98564591	      5.09722555	      2.84380917	      6.77045528	      6.97393274	     -0.76794278	     -8.83482975
      4.05500000	    -10.47985157	      0.94628139	      1.46525329	     -1.84297322	     -0.01563955	      0.39584640	     34.44577733	     -2.99116476	     -8.60693986	    -26.65831833	     -9.44115822	     -7.75984499	     10.14881150	      2.23101465	      4.36957754	     12.60571814	     -8.84515237	      5.22208495	      3.12400054	      6.90816387	      6.97103947	     -0.85409871	     -9.01263540
      4.06000000	    -10.44450926	      0.92724439	      1.87648375	     -1.83710590	     -0.01603928	      0.39613987	     34.18371908	     -3.13274964	     -8.89006051	    -24.59371964	     -9.04365429	     -6.56105389	     10.27597731	      1.76398140	      4.29997563	     12.68689492	     -8.78041602	      5.34171934	      3.41833155	      7.07052983	      6.87859092	     -0.98404053	     -9.28804175
      4.06500000	    -10.43145621	      0.89935648	      2.24913048	     -1.83112571	     -0.01646034	      0.39647228	     33.91909096	     -3.24828472	     -9.19373346	    -22.54648167	     -8.72064218	     -5.38152479	     10.35963178	      1.31013184	      4.21156547	     12.75754477	     -8.70834643	      5.44196016	      3.71030246	      7.23219630	      6.83256284	     -1.09203674	     -9.48912825
      4.07000000	    -10.45003230	      0.85980697	      2.58117252	     -1.82505380	     -0.01691685	      0.39685303	     33.66870950	     -3.33225475	     -9.51559703	    -20.52896202	     -8.48182920	     -4.23835543	     10.43726652	      0.88946277	      4.10327653	     12.81990040	     -8.64744870	      5.53121958	      4.00310820	      7.39902282	      6.83844918	     -1.18019315	     -9.62303760
      4.07500000	    -10.39991574	      0.84902587	      2.96056562	     -1.81897248	     -0.01730527	      0.39720411	     33.31692064	     -3.46325618	     -9.88271093	    -18.56128022	     -8.18836023	     -3.11942073	     10.45925954	      0.42802659	      4.02395059	     12.86650905	     -8.64760185	      5.60231703	      4.32725855	      7.59014997	      6.77066672	     -1.30354420	     -9.84348957
